<svg width="1160" height="144" viewBox="0 0 1160 144" fill="none" xmlns="http://www.w3.org/2000/svg">
<path d="M1073.31 127.312C1073.31 127.792 1073.28 128.224 1073.22 128.608H1063.5C1063.58 129.568 1063.91 130.32 1064.5 130.864C1065.1 131.408 1065.82 131.68 1066.69 131.68C1067.94 131.68 1068.82 131.144 1069.35 130.072H1072.98C1072.59 131.352 1071.86 132.408 1070.77 133.24C1069.68 134.056 1068.34 134.464 1066.76 134.464C1065.48 134.464 1064.33 134.184 1063.3 133.624C1062.3 133.048 1061.5 132.24 1060.93 131.2C1060.37 130.16 1060.09 128.96 1060.09 127.6C1060.09 126.224 1060.37 125.016 1060.93 123.976C1061.49 122.936 1062.27 122.136 1063.28 121.576C1064.29 121.016 1065.45 120.736 1066.76 120.736C1068.02 120.736 1069.15 121.008 1070.14 121.552C1071.15 122.096 1071.93 122.872 1072.47 123.88C1073.03 124.872 1073.31 126.016 1073.31 127.312ZM1069.83 126.352C1069.82 125.488 1069.5 124.8 1068.9 124.288C1068.29 123.76 1067.54 123.496 1066.66 123.496C1065.83 123.496 1065.13 123.752 1064.55 124.264C1063.99 124.76 1063.65 125.456 1063.52 126.352H1069.83ZM1098 120.76C1099.63 120.76 1100.94 121.264 1101.93 122.272C1102.94 123.264 1103.44 124.656 1103.44 126.448V134.248H1100.08V126.904C1100.08 125.864 1099.82 125.072 1099.29 124.528C1098.76 123.968 1098.04 123.688 1097.13 123.688C1096.22 123.688 1095.49 123.968 1094.95 124.528C1094.42 125.072 1094.16 125.864 1094.16 126.904V134.248H1090.8V126.904C1090.8 125.864 1090.53 125.072 1090 124.528C1089.48 123.968 1088.76 123.688 1087.84 123.688C1086.92 123.688 1086.18 123.968 1085.64 124.528C1085.11 125.072 1084.84 125.864 1084.84 126.904V134.248H1081.48V120.952H1084.84V122.56C1085.28 122 1085.83 121.56 1086.5 121.24C1087.19 120.92 1087.94 120.76 1088.76 120.76C1089.8 120.76 1090.72 120.984 1091.54 121.432C1092.36 121.864 1092.99 122.488 1093.44 123.304C1093.87 122.536 1094.49 121.92 1095.31 121.456C1096.14 120.992 1097.04 120.76 1098 120.76ZM1105.77 127.552C1105.77 126.208 1106.03 125.016 1106.56 123.976C1107.1 122.936 1107.83 122.136 1108.74 121.576C1109.67 121.016 1110.7 120.736 1111.84 120.736C1112.83 120.736 1113.7 120.936 1114.43 121.336C1115.18 121.736 1115.78 122.24 1116.23 122.848V120.952H1119.62V134.248H1116.23V132.304C1115.8 132.928 1115.2 133.448 1114.43 133.864C1113.68 134.264 1112.81 134.464 1111.82 134.464C1110.7 134.464 1109.67 134.176 1108.74 133.6C1107.83 133.024 1107.1 132.216 1106.56 131.176C1106.03 130.12 1105.77 128.912 1105.77 127.552ZM1116.23 127.6C1116.23 126.784 1116.07 126.088 1115.75 125.512C1115.43 124.92 1115 124.472 1114.46 124.168C1113.91 123.848 1113.33 123.688 1112.7 123.688C1112.08 123.688 1111.5 123.84 1110.98 124.144C1110.45 124.448 1110.02 124.896 1109.68 125.488C1109.36 126.064 1109.2 126.752 1109.2 127.552C1109.2 128.352 1109.36 129.056 1109.68 129.664C1110.02 130.256 1110.45 130.712 1110.98 131.032C1111.52 131.352 1112.1 131.512 1112.7 131.512C1113.33 131.512 1113.91 131.36 1114.46 131.056C1115 130.736 1115.43 130.288 1115.75 129.712C1116.07 129.12 1116.23 128.416 1116.23 127.6ZM1124.6 119.368C1124.01 119.368 1123.51 119.184 1123.11 118.816C1122.73 118.432 1122.54 117.96 1122.54 117.4C1122.54 116.84 1122.73 116.376 1123.11 116.008C1123.51 115.624 1124.01 115.432 1124.6 115.432C1125.19 115.432 1125.68 115.624 1126.07 116.008C1126.47 116.376 1126.67 116.84 1126.67 117.4C1126.67 117.96 1126.47 118.432 1126.07 118.816C1125.68 119.184 1125.19 119.368 1124.6 119.368ZM1126.26 120.952V134.248H1122.9V120.952H1126.26ZM1134.67 134.464C1133.58 134.464 1132.6 134.272 1131.74 133.888C1130.87 133.488 1130.19 132.952 1129.67 132.28C1129.18 131.608 1128.91 130.864 1128.86 130.048H1132.24C1132.31 130.56 1132.55 130.984 1132.99 131.32C1133.43 131.656 1133.99 131.824 1134.64 131.824C1135.28 131.824 1135.78 131.696 1136.13 131.44C1136.5 131.184 1136.68 130.856 1136.68 130.456C1136.68 130.024 1136.46 129.704 1136.01 129.496C1135.58 129.272 1134.88 129.032 1133.92 128.776C1132.93 128.536 1132.11 128.288 1131.47 128.032C1130.85 127.776 1130.31 127.384 1129.84 126.856C1129.39 126.328 1129.17 125.616 1129.17 124.72C1129.17 123.984 1129.38 123.312 1129.79 122.704C1130.23 122.096 1130.83 121.616 1131.62 121.264C1132.42 120.912 1133.35 120.736 1134.43 120.736C1136.01 120.736 1137.27 121.136 1138.22 121.936C1139.16 122.72 1139.68 123.784 1139.78 125.128H1136.56C1136.51 124.6 1136.29 124.184 1135.89 123.88C1135.51 123.56 1134.99 123.4 1134.33 123.4C1133.72 123.4 1133.25 123.512 1132.91 123.736C1132.59 123.96 1132.43 124.272 1132.43 124.672C1132.43 125.12 1132.66 125.464 1133.11 125.704C1133.55 125.928 1134.25 126.16 1135.19 126.4C1136.15 126.64 1136.95 126.888 1137.57 127.144C1138.19 127.4 1138.73 127.8 1139.18 128.344C1139.64 128.872 1139.88 129.576 1139.9 130.456C1139.9 131.224 1139.68 131.912 1139.25 132.52C1138.83 133.128 1138.23 133.608 1137.43 133.96C1136.64 134.296 1135.72 134.464 1134.67 134.464ZM1144.14 134.416C1143.54 134.416 1143.03 134.232 1142.63 133.864C1142.25 133.48 1142.06 133.008 1142.06 132.448C1142.06 131.888 1142.25 131.424 1142.63 131.056C1143.03 130.672 1143.54 130.48 1144.14 130.48C1144.74 130.48 1145.22 130.672 1145.61 131.056C1145.99 131.424 1146.18 131.888 1146.18 132.448C1146.18 133.008 1145.99 133.48 1145.61 133.864C1145.22 134.232 1144.74 134.416 1144.14 134.416ZM1150.38 134.416C1149.77 134.416 1149.27 134.232 1148.87 133.864C1148.48 133.48 1148.29 133.008 1148.29 132.448C1148.29 131.888 1148.48 131.424 1148.87 131.056C1149.27 130.672 1149.77 130.48 1150.38 130.48C1150.97 130.48 1151.46 130.672 1151.84 131.056C1152.23 131.424 1152.42 131.888 1152.42 132.448C1152.42 133.008 1152.23 133.48 1151.84 133.864C1151.46 134.232 1150.97 134.416 1150.38 134.416ZM1156.61 134.416C1156 134.416 1155.5 134.232 1155.1 133.864C1154.72 133.48 1154.52 133.008 1154.52 132.448C1154.52 131.888 1154.72 131.424 1155.1 131.056C1155.5 130.672 1156 130.48 1156.61 130.48C1157.2 130.48 1157.69 130.672 1158.08 131.056C1158.46 131.424 1158.65 131.888 1158.65 132.448C1158.65 133.008 1158.46 133.48 1158.08 133.864C1157.69 134.232 1157.2 134.416 1156.61 134.416Z" fill="#47585B"/>
<g clip-path="url(#clip0_39_24)">
<path d="M1128.94 18.775L1129.02 19.4017L1128.07 19.5962L1127.95 20.9312H1129.08L1130.59 20.7871L1131.37 19.8687L1130.54 19.5493L1130.09 19.032L1129.41 17.9383L1129.08 16.3915L1127.8 16.6501L1127.44 17.1952V17.8098L1128.06 18.2282L1128.94 18.775Z" fill="#FFBA08"/>
<path d="M1127.85 19.2889L1127.92 18.4521L1127.17 18.131L1126.12 18.3723L1125.34 19.6118V20.4156H1126.25L1127.85 19.2889Z" fill="#FFBA08"/>
<path d="M1106.26 22.8425L1106.03 23.4328H1104.91V24.0056H1105.18C1105.18 24.0056 1105.19 24.1272 1105.22 24.2869L1105.9 24.2296L1106.33 23.9657L1106.44 23.4328L1107 23.3859L1107.21 22.938L1106.71 22.8338L1106.26 22.8425Z" fill="#FFBA08"/>
<path d="M1103.38 23.8824L1103.34 24.4431L1104.15 24.3754L1104.23 23.8129L1103.74 23.4328L1103.38 23.8824Z" fill="#FFBA08"/>
<path d="M1151.99 41.7703C1151.98 40.536 1151.91 39.3104 1151.8 38.1038C1151.4 34.0815 1150.44 30.2258 1148.98 26.6114C1148.88 26.3423 1148.78 26.0698 1148.66 25.8041C1146.73 21.2679 1144.01 17.138 1140.69 13.5739C1140.47 13.3413 1140.25 13.1121 1140.03 12.8864C1139.4 12.2389 1138.75 11.607 1138.09 11.0011C1130.53 4.16991 1120.5 0 1109.5 0C1098.41 0 1088.3 4.24456 1080.73 11.1799C1078.96 12.7962 1077.34 14.56 1075.87 16.4488C1070.31 23.5803 1067 32.5139 1067 42.206C1067 65.4808 1086.07 84.4138 1109.5 84.4138C1125.99 84.4138 1140.3 75.0393 1147.34 61.3803C1148.85 58.4604 1150.02 55.3477 1150.81 52.0857C1151.01 51.2576 1151.19 50.4261 1151.34 49.5841C1151.76 47.1867 1152 44.7215 1152 42.206C1152 42.0602 1151.99 41.9161 1151.99 41.7703ZM1143.99 24.9014L1144.24 24.6271C1144.56 25.2504 1144.86 25.884 1145.15 26.5263L1144.75 26.5107L1143.99 26.6149V24.9014ZM1137.85 17.5372L1137.86 15.6519C1138.52 16.355 1139.17 17.0789 1139.78 17.8289L1139.02 18.9608L1136.34 18.9365L1136.17 18.3827L1137.85 17.5372ZM1146.7 31.4896H1143.59L1141.69 30.0886L1139.7 30.2813V31.4896H1139.07L1138.39 31.007L1134.93 30.1372V27.9151L1130.55 28.2537L1129.2 28.9776H1127.46L1126.61 28.8925L1124.5 30.0557V32.2448L1120.19 35.3349L1120.55 36.6543H1121.42L1121.19 37.9111L1120.57 38.1351L1120.54 41.4196L1124.27 45.6347H1125.89L1125.99 45.3777H1128.9L1129.75 44.6052H1131.4L1132.31 45.5079L1134.77 45.7614L1134.44 49.0164L1137.18 53.813L1135.74 56.5473L1135.84 57.8354L1136.97 58.9586V62.0556L1138.46 64.0451V66.6179H1139.75C1132.59 75.3483 1121.69 80.94 1109.5 80.94C1087.99 80.9418 1070.5 63.5642 1070.5 42.206C1070.5 36.8296 1071.61 31.7049 1073.61 27.0471V25.8389L1075 24.1567C1075.49 23.2487 1076.01 22.3634 1076.56 21.5006L1076.62 22.2037L1075.01 24.1567C1074.5 25.0976 1074.04 26.0593 1073.61 27.0471V29.2519L1075.23 30.0261V33.0902L1076.79 35.7237L1078.05 35.9164L1078.21 35.0137L1076.72 32.7291L1076.43 30.5088H1077.3L1077.67 32.7934L1079.83 35.9164L1079.27 36.9251L1080.64 39.0066L1084.05 39.8433V39.2965L1085.41 39.4892L1085.28 40.4544L1086.35 40.6488L1088 41.0967L1090.33 43.7372L1093.31 43.9611L1093.61 46.3759L1091.57 47.7925L1091.47 49.9487L1091.18 51.268L1094.13 54.9362L1094.35 56.1931C1094.35 56.1931 1095.42 56.4813 1095.55 56.4813C1095.68 56.4813 1097.95 58.1878 1097.95 58.1878V64.8176L1098.76 65.0433L1098.21 68.1022L1099.57 69.9059L1099.32 72.937L1101.12 76.0775L1103.43 78.0808L1105.75 78.1225L1105.98 77.3812L1104.27 75.9542L1104.37 75.2459L1104.68 74.3779L1104.74 73.4925L1103.59 73.4578L1103.01 72.7321L1103.96 71.8173L1104.09 71.1263L1103.02 70.8225L1103.09 70.1802L1104.61 69.951L1106.93 68.8452L1107.71 67.4286L1110.14 64.3385L1109.58 61.922L1110.33 60.6356L1112.57 60.7033L1114.07 59.5193L1114.56 54.8564L1116.23 52.7506L1116.52 51.3982L1115 50.9139L1113.99 49.2768L1110.56 49.2421L1107.83 48.2109L1107.7 46.2822L1106.79 44.7042L1104.33 44.6677L1102.91 42.4491L1101.65 41.8363L1101.58 42.5133L1099.28 42.6487L1098.44 41.4839L1096.04 40.9995L1094.06 43.2685L1090.95 42.7442L1090.72 39.2617L1088.45 38.8764L1089.36 37.1681L1089.1 36.1873L1086.12 38.1681L1084.24 37.9406L1083.57 36.4841L1083.98 34.9825L1085.02 33.0885L1087.4 31.8906L1092 31.8889L1091.99 33.2829L1093.64 34.0468L1093.51 31.6649L1094.7 30.474L1097.11 28.9047L1097.27 27.8006L1099.67 25.3215L1102.22 23.9188L1101.99 23.7348L1103.72 22.1203L1104.35 22.287L1104.64 22.6481L1105.3 21.9259L1105.46 21.8547L1104.74 21.754L1104.01 21.5127V20.8183L1104.4 20.5041H1105.25L1105.64 20.6742L1105.98 21.3513L1106.39 21.2888V21.2297L1106.51 21.2697L1107.71 21.0874L1107.88 20.5076L1108.56 20.6777V21.3061L1107.92 21.7384H1107.93L1108.02 22.4276L1110.18 23.0908C1110.18 23.0908 1110.19 23.0994 1110.19 23.1168L1110.69 23.0751L1110.72 22.1429L1109 21.3669L1108.91 20.919L1110.33 20.4364L1110.39 19.0823L1108.9 18.1813L1108.81 15.8984L1106.77 16.8949H1106.02L1106.22 15.1572L1103.44 14.5062L1102.29 15.369V18.0008L1100.22 18.6518L1099.39 20.3669L1098.49 20.511V18.3167L1096.55 18.0494L1095.58 17.4209L1095.18 15.9991L1098.66 13.9784L1100.36 13.4645L1100.53 14.5999L1101.48 14.5513L1101.55 13.9801L1102.55 13.8395L1102.56 13.6399L1102.14 13.4645L1102.04 12.8604L1103.26 12.758L1103.99 11.9976L1104.03 11.9421L1104.04 11.9455L1104.27 11.7164L1106.83 11.3952L1107.96 12.35L1104.99 13.9211L1108.77 14.8065L1109.26 13.5513H1110.91L1111.49 12.4577L1110.33 12.1677V10.7841L1106.66 9.17311L1104.14 9.46303L1102.71 10.2043L1102.81 12.0063L1101.32 11.7806L1101.09 10.7841L1102.52 9.49601L1099.92 9.36754L1099.18 9.59149L1098.86 10.4595L1099.83 10.6227L1099.63 11.5879L1097.98 11.6851L1097.72 12.3275L1095.33 12.3934C1095.33 12.3934 1095.26 11.0428 1095.16 11.0428C1095.07 11.0428 1097.04 11.0098 1097.04 11.0098L1098.47 9.62448L1097.69 9.23734L1096.65 10.2373L1094.93 10.1401L1093.9 8.72348H1091.69L1089.39 10.43H1091.5L1091.69 11.0428L1091.15 11.548L1093.48 11.6122L1093.84 12.449L1091.21 12.3518L1091.08 11.7077L1089.43 11.3535L1088.55 10.8709L1086.59 10.8866C1093.03 6.22883 1100.94 3.47203 1109.5 3.47203C1119.36 3.47203 1128.37 7.13329 1135.25 13.1486L1134.78 13.9715L1132.99 14.6711L1132.23 15.4887L1132.4 16.4418L1133.33 16.5703L1133.89 17.9591L1135.49 17.3185L1135.76 19.176H1135.27L1133.96 18.9833L1132.5 19.2264L1131.09 21.2054L1129.07 21.5197L1128.78 23.2348L1129.63 23.4345L1129.39 24.5369L1127.38 24.1376L1125.54 24.5369L1125.15 25.5524L1125.47 27.6843L1126.55 28.186L1128.36 28.1755L1129.58 28.0662L1129.96 27.101L1131.86 24.6375L1133.12 24.8927L1134.36 23.7817L1134.59 24.6497L1137.63 26.6895L1137.26 27.186L1135.89 27.1131L1136.42 27.8561L1137.26 28.0401L1138.25 27.6304L1138.23 26.4465L1138.67 26.2277L1138.32 25.8562L1136.28 24.7313L1135.75 23.2366H1137.44L1137.98 23.7678L1139.43 25.0125L1139.49 26.5177L1141 28.1113L1141.56 25.9274L1142.61 25.3615L1142.8 27.1478L1143.82 28.2589L1145.85 28.2242C1146.25 29.2293 1146.6 30.2518 1146.91 31.2952L1146.7 31.4896ZM1147.33 33.4444L1147.45 33.302C1147.5 33.5207 1147.56 33.7395 1147.61 33.9617L1147.33 33.4444Z" fill="#FFBA08"/>
<path d="M1073.61 25.8389V27.0471C1074.04 26.0611 1074.5 25.0993 1075.01 24.1567L1073.61 25.8389Z" fill="#FFBA08"/>
</g>
<path d="M808.812 127.6C808.812 126.224 809.092 125.024 809.652 124C810.212 122.96 810.988 122.16 811.98 121.6C812.972 121.024 814.108 120.736 815.388 120.736C817.036 120.736 818.396 121.152 819.468 121.984C820.556 122.8 821.284 123.952 821.652 125.44H818.028C817.836 124.864 817.508 124.416 817.044 124.096C816.596 123.76 816.036 123.592 815.364 123.592C814.404 123.592 813.644 123.944 813.084 124.648C812.524 125.336 812.244 126.32 812.244 127.6C812.244 128.864 812.524 129.848 813.084 130.552C813.644 131.24 814.404 131.584 815.364 131.584C816.724 131.584 817.612 130.976 818.028 129.76H821.652C821.284 131.2 820.556 132.344 819.468 133.192C818.38 134.04 817.02 134.464 815.388 134.464C814.108 134.464 812.972 134.184 811.98 133.624C810.988 133.048 810.212 132.248 809.652 131.224C809.092 130.184 808.812 128.976 808.812 127.6ZM827.473 116.488V134.248H824.113V116.488H827.473ZM829.929 127.552C829.929 126.208 830.193 125.016 830.721 123.976C831.265 122.936 831.993 122.136 832.905 121.576C833.833 121.016 834.865 120.736 836.001 120.736C836.993 120.736 837.857 120.936 838.593 121.336C839.345 121.736 839.945 122.24 840.393 122.848V120.952H843.777V134.248H840.393V132.304C839.961 132.928 839.361 133.448 838.593 133.864C837.841 134.264 836.969 134.464 835.977 134.464C834.857 134.464 833.833 134.176 832.905 133.6C831.993 133.024 831.265 132.216 830.721 131.176C830.193 130.12 829.929 128.912 829.929 127.552ZM840.393 127.6C840.393 126.784 840.233 126.088 839.913 125.512C839.593 124.92 839.161 124.472 838.617 124.168C838.073 123.848 837.489 123.688 836.865 123.688C836.241 123.688 835.665 123.84 835.137 124.144C834.609 124.448 834.177 124.896 833.841 125.488C833.521 126.064 833.361 126.752 833.361 127.552C833.361 128.352 833.521 129.056 833.841 129.664C834.177 130.256 834.609 130.712 835.137 131.032C835.681 131.352 836.257 131.512 836.865 131.512C837.489 131.512 838.073 131.36 838.617 131.056C839.161 130.736 839.593 130.288 839.913 129.712C840.233 129.12 840.393 128.416 840.393 127.6ZM839.937 117.496L834.417 120.016V117.616L839.937 114.76V117.496ZM852.146 134.464C851.058 134.464 850.082 134.272 849.218 133.888C848.354 133.488 847.666 132.952 847.154 132.28C846.658 131.608 846.386 130.864 846.338 130.048H849.722C849.786 130.56 850.034 130.984 850.466 131.32C850.914 131.656 851.466 131.824 852.122 131.824C852.762 131.824 853.258 131.696 853.61 131.44C853.978 131.184 854.162 130.856 854.162 130.456C854.162 130.024 853.938 129.704 853.49 129.496C853.058 129.272 852.362 129.032 851.402 128.776C850.41 128.536 849.594 128.288 848.954 128.032C848.33 127.776 847.786 127.384 847.322 126.856C846.874 126.328 846.65 125.616 846.65 124.72C846.65 123.984 846.858 123.312 847.274 122.704C847.706 122.096 848.314 121.616 849.098 121.264C849.898 120.912 850.834 120.736 851.906 120.736C853.49 120.736 854.754 121.136 855.698 121.936C856.642 122.72 857.162 123.784 857.258 125.128H854.042C853.994 124.6 853.77 124.184 853.37 123.88C852.986 123.56 852.466 123.4 851.81 123.4C851.202 123.4 850.73 123.512 850.394 123.736C850.074 123.96 849.914 124.272 849.914 124.672C849.914 125.12 850.138 125.464 850.586 125.704C851.034 125.928 851.73 126.16 852.674 126.4C853.634 126.64 854.426 126.888 855.05 127.144C855.674 127.4 856.21 127.8 856.658 128.344C857.122 128.872 857.362 129.576 857.378 130.456C857.378 131.224 857.162 131.912 856.73 132.52C856.314 133.128 855.706 133.608 854.906 133.96C854.122 134.296 853.202 134.464 852.146 134.464ZM865.224 134.464C864.136 134.464 863.16 134.272 862.296 133.888C861.432 133.488 860.744 132.952 860.232 132.28C859.736 131.608 859.464 130.864 859.416 130.048H862.8C862.864 130.56 863.112 130.984 863.544 131.32C863.992 131.656 864.544 131.824 865.2 131.824C865.84 131.824 866.336 131.696 866.688 131.44C867.056 131.184 867.24 130.856 867.24 130.456C867.24 130.024 867.016 129.704 866.568 129.496C866.136 129.272 865.44 129.032 864.48 128.776C863.488 128.536 862.672 128.288 862.032 128.032C861.408 127.776 860.864 127.384 860.4 126.856C859.952 126.328 859.728 125.616 859.728 124.72C859.728 123.984 859.936 123.312 860.352 122.704C860.784 122.096 861.392 121.616 862.176 121.264C862.976 120.912 863.912 120.736 864.984 120.736C866.568 120.736 867.832 121.136 868.776 121.936C869.72 122.72 870.24 123.784 870.336 125.128H867.12C867.072 124.6 866.848 124.184 866.448 123.88C866.064 123.56 865.544 123.4 864.888 123.4C864.28 123.4 863.808 123.512 863.472 123.736C863.152 123.96 862.992 124.272 862.992 124.672C862.992 125.12 863.216 125.464 863.664 125.704C864.112 125.928 864.808 126.16 865.752 126.4C866.712 126.64 867.504 126.888 868.128 127.144C868.752 127.4 869.288 127.8 869.736 128.344C870.2 128.872 870.44 129.576 870.456 130.456C870.456 131.224 870.24 131.912 869.808 132.52C869.392 133.128 868.784 133.608 867.984 133.96C867.2 134.296 866.28 134.464 865.224 134.464ZM874.919 119.368C874.327 119.368 873.831 119.184 873.431 118.816C873.047 118.432 872.855 117.96 872.855 117.4C872.855 116.84 873.047 116.376 873.431 116.008C873.831 115.624 874.327 115.432 874.919 115.432C875.511 115.432 875.999 115.624 876.383 116.008C876.783 116.376 876.983 116.84 876.983 117.4C876.983 117.96 876.783 118.432 876.383 118.816C875.999 119.184 875.511 119.368 874.919 119.368ZM876.575 120.952V134.248H873.215V120.952H876.575ZM879.03 127.6C879.03 126.224 879.31 125.024 879.87 124C880.43 122.96 881.206 122.16 882.198 121.6C883.19 121.024 884.326 120.736 885.606 120.736C887.254 120.736 888.614 121.152 889.686 121.984C890.774 122.8 891.502 123.952 891.87 125.44H888.246C888.054 124.864 887.726 124.416 887.262 124.096C886.814 123.76 886.254 123.592 885.582 123.592C884.622 123.592 883.862 123.944 883.302 124.648C882.742 125.336 882.462 126.32 882.462 127.6C882.462 128.864 882.742 129.848 883.302 130.552C883.862 131.24 884.622 131.584 885.582 131.584C886.942 131.584 887.83 130.976 888.246 129.76H891.87C891.502 131.2 890.774 132.344 889.686 133.192C888.598 134.04 887.238 134.464 885.606 134.464C884.326 134.464 883.19 134.184 882.198 133.624C881.206 133.048 880.43 132.248 879.87 131.224C879.31 130.184 879.03 128.976 879.03 127.6ZM900.236 134.464C898.956 134.464 897.804 134.184 896.78 133.624C895.756 133.048 894.948 132.24 894.356 131.2C893.78 130.16 893.492 128.96 893.492 127.6C893.492 126.24 893.788 125.04 894.38 124C894.988 122.96 895.812 122.16 896.852 121.6C897.892 121.024 899.052 120.736 900.332 120.736C901.612 120.736 902.772 121.024 903.812 121.6C904.852 122.16 905.668 122.96 906.26 124C906.868 125.04 907.172 126.24 907.172 127.6C907.172 128.96 906.86 130.16 906.236 131.2C905.628 132.24 904.796 133.048 903.74 133.624C902.7 134.184 901.532 134.464 900.236 134.464ZM900.236 131.536C900.844 131.536 901.412 131.392 901.94 131.104C902.484 130.8 902.916 130.352 903.236 129.76C903.556 129.168 903.716 128.448 903.716 127.6C903.716 126.336 903.38 125.368 902.708 124.696C902.052 124.008 901.244 123.664 900.284 123.664C899.324 123.664 898.516 124.008 897.86 124.696C897.22 125.368 896.9 126.336 896.9 127.6C896.9 128.864 897.212 129.84 897.836 130.528C898.476 131.2 899.276 131.536 900.236 131.536Z" fill="#47585B"/>
<g clip-path="url(#clip1_39_24)">
<path d="M895.176 64.2986V60.9537C895.176 57.9062 892.757 55.4159 889.726 55.2593V27.9843H893.078C894.236 27.9843 895.176 27.0519 895.176 25.9015V16.9441C895.176 15.9663 894.491 15.12 893.529 14.9099L857.951 7.13839C857.653 7.07348 857.346 7.07348 857.049 7.13839L821.471 14.9103C820.509 15.1203 819.824 15.9666 819.824 16.9445V25.9015C819.824 27.0519 820.764 27.9843 821.922 27.9843H825.274V55.2597C822.243 55.4159 819.824 57.9062 819.824 60.954V64.299C817.086 64.7888 815 67.1677 815 70.0263V75.2412C815 76.3916 815.939 77.324 817.097 77.324H821.922H893.078H897.903C899.061 77.324 900 76.3916 900 75.2412V70.0263C900 67.1677 897.914 64.7888 895.176 64.2986ZM824.019 60.9537C824.019 60.1025 824.716 59.41 825.573 59.41H889.427C890.284 59.41 890.981 60.1025 890.981 60.9537V64.2011H824.019V60.9537ZM835.438 55.2444H829.468V28.5914H835.438V55.2444ZM858.669 27.9843V55.2444H856.331V27.9843H858.669ZM868.834 55.2444H862.864V28.5914H868.834V55.2444ZM885.532 55.2444H879.562V28.5914H885.532V55.2444ZM852.136 28.5914V55.2444H846.166V28.5914H852.136ZM819.194 70.0263C819.194 69.1112 819.944 68.367 820.865 68.367H821.921H824.019H890.981H893.078H894.134C895.055 68.367 895.805 69.1116 895.805 70.0263V73.1584H890.98H824.019H819.194V70.0263ZM875.367 55.2444H873.029V27.9843H875.367V55.2444ZM824.019 18.6187L857.5 11.305L890.981 18.6187V23.8184H824.019V18.6187ZM841.971 27.9843V55.2444H839.633V27.9843H841.971Z" fill="#FFBA08"/>
</g>
<path d="M542.465 120.76C544.097 120.76 545.409 121.264 546.401 122.272C547.409 123.264 547.913 124.656 547.913 126.448V134.248H544.553V126.904C544.553 125.864 544.289 125.072 543.761 124.528C543.233 123.968 542.513 123.688 541.601 123.688C540.689 123.688 539.961 123.968 539.417 124.528C538.889 125.072 538.625 125.864 538.625 126.904V134.248H535.265V126.904C535.265 125.864 535.001 125.072 534.473 124.528C533.945 123.968 533.225 123.688 532.313 123.688C531.385 123.688 530.649 123.968 530.105 124.528C529.577 125.072 529.313 125.864 529.313 126.904V134.248H525.953V120.952H529.313V122.56C529.745 122 530.297 121.56 530.969 121.24C531.657 120.92 532.409 120.76 533.225 120.76C534.265 120.76 535.193 120.984 536.009 121.432C536.825 121.864 537.457 122.488 537.905 123.304C538.337 122.536 538.961 121.92 539.777 121.456C540.609 120.992 541.505 120.76 542.465 120.76ZM557.005 134.464C555.725 134.464 554.573 134.184 553.549 133.624C552.525 133.048 551.717 132.24 551.125 131.2C550.549 130.16 550.261 128.96 550.261 127.6C550.261 126.24 550.557 125.04 551.149 124C551.757 122.96 552.581 122.16 553.621 121.6C554.661 121.024 555.821 120.736 557.101 120.736C558.381 120.736 559.541 121.024 560.581 121.6C561.621 122.16 562.437 122.96 563.029 124C563.637 125.04 563.941 126.24 563.941 127.6C563.941 128.96 563.629 130.16 563.005 131.2C562.397 132.24 561.565 133.048 560.509 133.624C559.469 134.184 558.301 134.464 557.005 134.464ZM557.005 131.536C557.613 131.536 558.181 131.392 558.709 131.104C559.253 130.8 559.685 130.352 560.005 129.76C560.325 129.168 560.485 128.448 560.485 127.6C560.485 126.336 560.149 125.368 559.477 124.696C558.821 124.008 558.013 123.664 557.053 123.664C556.093 123.664 555.285 124.008 554.629 124.696C553.989 125.368 553.669 126.336 553.669 127.6C553.669 128.864 553.981 129.84 554.605 130.528C555.245 131.2 556.045 131.536 557.005 131.536ZM565.542 127.552C565.542 126.208 565.806 125.016 566.334 123.976C566.878 122.936 567.614 122.136 568.542 121.576C569.47 121.016 570.502 120.736 571.638 120.736C572.502 120.736 573.326 120.928 574.11 121.312C574.894 121.68 575.518 122.176 575.982 122.8V116.488H579.39V134.248H575.982V132.28C575.566 132.936 574.982 133.464 574.23 133.864C573.478 134.264 572.606 134.464 571.614 134.464C570.494 134.464 569.47 134.176 568.542 133.6C567.614 133.024 566.878 132.216 566.334 131.176C565.806 130.12 565.542 128.912 565.542 127.552ZM576.006 127.6C576.006 126.784 575.846 126.088 575.526 125.512C575.206 124.92 574.774 124.472 574.23 124.168C573.686 123.848 573.102 123.688 572.478 123.688C571.854 123.688 571.278 123.84 570.75 124.144C570.222 124.448 569.79 124.896 569.454 125.488C569.134 126.064 568.974 126.752 568.974 127.552C568.974 128.352 569.134 129.056 569.454 129.664C569.79 130.256 570.222 130.712 570.75 131.032C571.294 131.352 571.87 131.512 572.478 131.512C573.102 131.512 573.686 131.36 574.23 131.056C574.774 130.736 575.206 130.288 575.526 129.712C575.846 129.12 576.006 128.416 576.006 127.6ZM595.032 127.312C595.032 127.792 595 128.224 594.936 128.608H585.216C585.296 129.568 585.632 130.32 586.224 130.864C586.816 131.408 587.544 131.68 588.408 131.68C589.656 131.68 590.544 131.144 591.072 130.072H594.696C594.312 131.352 593.576 132.408 592.488 133.24C591.4 134.056 590.064 134.464 588.48 134.464C587.2 134.464 586.048 134.184 585.024 133.624C584.016 133.048 583.224 132.24 582.648 131.2C582.088 130.16 581.808 128.96 581.808 127.6C581.808 126.224 582.088 125.016 582.648 123.976C583.208 122.936 583.992 122.136 585 121.576C586.008 121.016 587.168 120.736 588.48 120.736C589.744 120.736 590.872 121.008 591.864 121.552C592.872 122.096 593.648 122.872 594.192 123.88C594.752 124.872 595.032 126.016 595.032 127.312ZM591.552 126.352C591.536 125.488 591.224 124.8 590.616 124.288C590.008 123.76 589.264 123.496 588.384 123.496C587.552 123.496 586.848 123.752 586.272 124.264C585.712 124.76 585.368 125.456 585.24 126.352H591.552ZM600.844 123.016C601.276 122.312 601.836 121.76 602.524 121.36C603.228 120.96 604.028 120.76 604.924 120.76V124.288H604.036C602.98 124.288 602.18 124.536 601.636 125.032C601.108 125.528 600.844 126.392 600.844 127.624V134.248H597.484V120.952H600.844V123.016ZM614.555 120.76C616.139 120.76 617.419 121.264 618.395 122.272C619.371 123.264 619.859 124.656 619.859 126.448V134.248H616.499V126.904C616.499 125.848 616.235 125.04 615.707 124.48C615.179 123.904 614.459 123.616 613.547 123.616C612.619 123.616 611.883 123.904 611.339 124.48C610.811 125.04 610.547 125.848 610.547 126.904V134.248H607.187V120.952H610.547V122.608C610.995 122.032 611.563 121.584 612.251 121.264C612.955 120.928 613.723 120.76 614.555 120.76ZM628.958 134.464C627.678 134.464 626.526 134.184 625.502 133.624C624.478 133.048 623.67 132.24 623.078 131.2C622.502 130.16 622.214 128.96 622.214 127.6C622.214 126.24 622.51 125.04 623.102 124C623.71 122.96 624.534 122.16 625.574 121.6C626.614 121.024 627.774 120.736 629.054 120.736C630.334 120.736 631.494 121.024 632.534 121.6C633.574 122.16 634.39 122.96 634.982 124C635.59 125.04 635.894 126.24 635.894 127.6C635.894 128.96 635.582 130.16 634.958 131.2C634.35 132.24 633.518 133.048 632.462 133.624C631.422 134.184 630.254 134.464 628.958 134.464ZM628.958 131.536C629.566 131.536 630.134 131.392 630.662 131.104C631.206 130.8 631.638 130.352 631.958 129.76C632.278 129.168 632.438 128.448 632.438 127.6C632.438 126.336 632.102 125.368 631.43 124.696C630.774 124.008 629.966 123.664 629.006 123.664C628.046 123.664 627.238 124.008 626.582 124.696C625.942 125.368 625.622 126.336 625.622 127.6C625.622 128.864 625.934 129.84 626.558 130.528C627.198 131.2 627.998 131.536 628.958 131.536Z" fill="#47585B"/>
<g clip-path="url(#clip2_39_24)">
<path d="M570.964 34.1806C570.176 34.1806 569.538 34.8148 569.538 35.597V78.4657C569.538 79.2479 570.176 79.882 570.964 79.882C571.751 79.882 572.39 79.2479 572.39 78.4657V35.597C572.39 34.8146 571.751 34.1806 570.964 34.1806Z" fill="#FFBA08"/>
<path d="M577.426 34.1806C576.639 34.1806 576 34.8148 576 35.597V78.4657C576 79.2479 576.639 79.882 577.426 79.882C578.214 79.882 578.852 79.2479 578.852 78.4657V35.597C578.852 34.8146 578.214 34.1806 577.426 34.1806Z" fill="#FFBA08"/>
<path d="M583.426 34.1806C582.639 34.1806 582 34.8148 582 35.597V78.4657C582 79.2479 582.639 79.882 583.426 79.882C584.214 79.882 584.852 79.2479 584.852 78.4657V35.597C584.852 34.8146 584.214 34.1806 583.426 34.1806Z" fill="#FFBA08"/>
<path d="M590.036 34.1806C589.249 34.1806 588.61 34.8148 588.61 35.597V78.4657C588.61 79.2479 589.249 79.882 590.036 79.882C590.824 79.882 591.463 79.2479 591.463 78.4657V35.597C591.463 34.8146 590.824 34.1806 590.036 34.1806Z" fill="#FFBA08"/>
<path d="M607.026 81.5811H598.28V31.2535C598.28 30.4713 597.641 29.8372 596.854 29.8372H595.228V16.9012C595.228 16.119 594.589 15.4848 593.802 15.4848H591.354V5.57041C591.354 4.7882 590.716 4.15406 589.928 4.15406H581.926C581.926 4.15406 581.288 4.15406 580.5 4.15406C579.074 4.15406 579.074 6.89176 579.074 4.15406H571.072C570.284 4.15406 569.646 4.7882 569.646 5.57041V15.4848H567.199C566.411 15.4848 565.772 16.119 565.772 16.9012V29.8372H564.147C563.359 29.8372 562.72 30.4713 562.72 31.2535V81.5811H553.974C553.187 81.5811 552.548 82.2152 552.548 82.9974C552.548 83.7796 553.187 84.4138 553.974 84.4138H607.026C607.813 84.4138 608.452 83.7796 608.452 82.9974C608.452 82.2152 607.813 81.5811 607.026 81.5811ZM572.498 6.98675H588.502V15.4848H587.166V10.3223C587.166 9.54014 586.528 8.906 585.74 8.906C584.952 8.906 584.314 9.54014 584.314 10.3223V15.4848H581.926V10.3223C581.926 9.54014 581.288 8.906 580.5 8.906C579.712 8.906 579.074 9.54014 579.074 10.3223V15.4848H576.686V10.3223C576.686 9.54014 576.048 8.906 575.26 8.906C574.473 8.906 573.834 9.54014 573.834 10.3223V15.4848H572.498L572.498 6.98675ZM568.625 18.3175H592.375V29.8372H589.786V20.5522C589.786 19.77 589.148 19.1358 588.36 19.1358C587.572 19.1358 586.934 19.77 586.934 20.5522V29.8372H584.546V20.5522C584.546 19.77 583.908 19.1358 583.12 19.1358C582.332 19.1358 581.694 19.77 581.694 20.5522V29.8372H579.306V20.5522C579.306 19.77 578.668 19.1358 577.88 19.1358C577.092 19.1358 576.454 19.77 576.454 20.5522V29.8372H574.066V20.5522C574.066 19.77 573.428 19.1358 572.64 19.1358C571.853 19.1358 571.214 19.77 571.214 20.5522V29.8372H568.625V18.3175ZM565.573 81.5811V32.6699H595.427V81.5811H565.573Z" fill="#FFBA08"/>
</g>
<path d="M299.426 122.872C299.858 122.264 300.45 121.76 301.202 121.36C301.97 120.944 302.842 120.736 303.818 120.736C304.954 120.736 305.978 121.016 306.89 121.576C307.818 122.136 308.546 122.936 309.074 123.976C309.618 125 309.89 126.192 309.89 127.552C309.89 128.912 309.618 130.12 309.074 131.176C308.546 132.216 307.818 133.024 306.89 133.6C305.978 134.176 304.954 134.464 303.818 134.464C302.842 134.464 301.978 134.264 301.226 133.864C300.49 133.464 299.89 132.96 299.426 132.352V140.584H296.066V120.952H299.426V122.872ZM306.458 127.552C306.458 126.752 306.29 126.064 305.954 125.488C305.634 124.896 305.202 124.448 304.658 124.144C304.13 123.84 303.554 123.688 302.93 123.688C302.322 123.688 301.746 123.848 301.202 124.168C300.674 124.472 300.242 124.92 299.906 125.512C299.586 126.104 299.426 126.8 299.426 127.6C299.426 128.4 299.586 129.096 299.906 129.688C300.242 130.28 300.674 130.736 301.202 131.056C301.746 131.36 302.322 131.512 302.93 131.512C303.554 131.512 304.13 131.352 304.658 131.032C305.202 130.712 305.634 130.256 305.954 129.664C306.29 129.072 306.458 128.368 306.458 127.552ZM315.692 123.016C316.124 122.312 316.684 121.76 317.372 121.36C318.076 120.96 318.876 120.76 319.772 120.76V124.288H318.884C317.828 124.288 317.028 124.536 316.484 125.032C315.956 125.528 315.692 126.392 315.692 127.624V134.248H312.332V120.952H315.692V123.016ZM321.171 127.552C321.171 126.208 321.435 125.016 321.963 123.976C322.507 122.936 323.235 122.136 324.147 121.576C325.075 121.016 326.107 120.736 327.243 120.736C328.235 120.736 329.099 120.936 329.835 121.336C330.587 121.736 331.187 122.24 331.635 122.848V120.952H335.019V134.248H331.635V132.304C331.203 132.928 330.603 133.448 329.835 133.864C329.083 134.264 328.211 134.464 327.219 134.464C326.099 134.464 325.075 134.176 324.147 133.6C323.235 133.024 322.507 132.216 321.963 131.176C321.435 130.12 321.171 128.912 321.171 127.552ZM331.635 127.6C331.635 126.784 331.475 126.088 331.155 125.512C330.835 124.92 330.403 124.472 329.859 124.168C329.315 123.848 328.731 123.688 328.107 123.688C327.483 123.688 326.907 123.84 326.379 124.144C325.851 124.448 325.419 124.896 325.083 125.488C324.763 126.064 324.603 126.752 324.603 127.552C324.603 128.352 324.763 129.056 325.083 129.664C325.419 130.256 325.851 130.712 326.379 131.032C326.923 131.352 327.499 131.512 328.107 131.512C328.731 131.512 329.315 131.36 329.859 131.056C330.403 130.736 330.835 130.288 331.155 129.712C331.475 129.12 331.635 128.416 331.635 127.6ZM340.005 119.368C339.413 119.368 338.917 119.184 338.517 118.816C338.133 118.432 337.941 117.96 337.941 117.4C337.941 116.84 338.133 116.376 338.517 116.008C338.917 115.624 339.413 115.432 340.005 115.432C340.597 115.432 341.085 115.624 341.469 116.008C341.869 116.376 342.069 116.84 342.069 117.4C342.069 117.96 341.869 118.432 341.469 118.816C341.085 119.184 340.597 119.368 340.005 119.368ZM341.661 120.952V134.248H338.301V120.952H341.661ZM344.116 127.552C344.116 126.208 344.38 125.016 344.908 123.976C345.452 122.936 346.18 122.136 347.092 121.576C348.02 121.016 349.052 120.736 350.188 120.736C351.18 120.736 352.044 120.936 352.78 121.336C353.532 121.736 354.132 122.24 354.58 122.848V120.952H357.964V134.248H354.58V132.304C354.148 132.928 353.548 133.448 352.78 133.864C352.028 134.264 351.156 134.464 350.164 134.464C349.044 134.464 348.02 134.176 347.092 133.6C346.18 133.024 345.452 132.216 344.908 131.176C344.38 130.12 344.116 128.912 344.116 127.552ZM354.58 127.6C354.58 126.784 354.42 126.088 354.1 125.512C353.78 124.92 353.348 124.472 352.804 124.168C352.26 123.848 351.676 123.688 351.052 123.688C350.428 123.688 349.852 123.84 349.324 124.144C348.796 124.448 348.364 124.896 348.028 125.488C347.708 126.064 347.548 126.752 347.548 127.552C347.548 128.352 347.708 129.056 348.028 129.664C348.364 130.256 348.796 130.712 349.324 131.032C349.868 131.352 350.444 131.512 351.052 131.512C351.676 131.512 352.26 131.36 352.804 131.056C353.348 130.736 353.78 130.288 354.1 129.712C354.42 129.12 354.58 128.416 354.58 127.6Z" fill="#47585B"/>
<path d="M369.703 77.7946H324.605C327.05 70.201 328.422 60.3777 328.422 50.1074C328.422 27.3296 314.22 9.17722 313.616 8.41579C313.072 7.73082 312.242 7.3312 311.364 7.3312C310.486 7.3312 309.656 7.73082 309.113 8.41579C308.508 9.17722 294.307 27.3299 294.307 50.1074C294.307 60.3777 295.678 70.201 298.123 77.7946H290.867C289.284 77.7946 288 79.0693 288 80.6416C288 82.2139 289.284 83.4887 290.867 83.4887H369.703C371.287 83.4887 372.57 82.2139 372.57 80.6416C372.57 79.0693 371.286 77.7946 369.703 77.7946ZM318.55 77.7946H314.231V19.9816C318.079 27.0033 322.688 37.951 322.688 50.1074C322.688 60.6534 321.191 70.6026 318.55 77.7946ZM300.041 50.1074C300.041 37.9504 304.65 27.0027 308.498 19.9816V77.7946H304.179C301.538 70.6026 300.041 60.6534 300.041 50.1074Z" fill="#FFBA08"/>
<path d="M364.258 22.8472C364.258 15.5461 358.278 9.6064 350.926 9.6064C343.574 9.6064 337.593 15.5461 337.593 22.8472C337.593 30.1482 343.574 36.0879 350.926 36.0879C358.278 36.0879 364.258 30.1482 364.258 22.8472ZM350.926 30.3941C346.736 30.3941 343.326 27.0084 343.326 22.8472C343.326 18.6859 346.736 15.3002 350.926 15.3002C355.116 15.3002 358.525 18.6859 358.525 22.8472C358.525 27.0084 355.116 30.3941 350.926 30.3941Z" fill="#FFBA08"/>
<path d="M350.926 8.98079C352.509 8.98079 353.793 7.70605 353.793 6.13374V3.77157C353.793 2.19926 352.509 0.924526 350.926 0.924526C349.342 0.924526 348.059 2.19926 348.059 3.77157V6.13374C348.059 7.70605 349.342 8.98079 350.926 8.98079Z" fill="#FFBA08"/>
<path d="M348.059 39.5599V41.9221C348.059 43.4944 349.342 44.7692 350.926 44.7692C352.509 44.7692 353.793 43.4944 353.793 41.9221V39.5599C353.793 37.9876 352.509 36.7129 350.926 36.7129C349.342 36.7132 348.059 37.9879 348.059 39.5599Z" fill="#FFBA08"/>
<path d="M364.888 22.8472C364.888 24.4195 366.171 25.6942 367.755 25.6942H370.133C371.716 25.6942 373 24.4195 373 22.8472C373 21.2748 371.716 20.0001 370.133 20.0001H367.755C366.172 20.0001 364.888 21.2751 364.888 22.8472Z" fill="#FFBA08"/>
<path d="M331.718 25.6942H334.097C335.68 25.6942 336.964 24.4195 336.964 22.8472C336.964 21.2748 335.68 20.0001 334.097 20.0001H331.718C330.135 20.0001 328.852 21.2748 328.852 22.8472C328.852 24.4195 330.135 25.6942 331.718 25.6942Z" fill="#FFBA08"/>
<path d="M362.825 13.8765C363.559 13.8765 364.293 13.5986 364.853 13.0426L366.535 11.3723C367.654 10.2604 367.654 8.45758 366.535 7.34599C365.415 6.2344 363.6 6.2344 362.48 7.34599L360.798 9.01636C359.679 10.1282 359.679 11.931 360.798 13.0426C361.358 13.5986 362.092 13.8765 362.825 13.8765Z" fill="#FFBA08"/>
<path d="M336.999 32.6516L335.317 34.322C334.197 35.4339 334.197 37.2367 335.317 38.3483C335.877 38.904 336.61 39.1822 337.344 39.1822C338.078 39.1822 338.811 38.9042 339.371 38.3483L341.053 36.6779C342.173 35.5661 342.173 33.7632 341.053 32.6516C339.934 31.54 338.119 31.54 336.999 32.6516Z" fill="#FFBA08"/>
<path d="M362.48 38.3483C363.04 38.904 363.774 39.1822 364.507 39.1822C365.241 39.1822 365.975 38.9042 366.535 38.3483C367.654 37.2364 367.654 35.4336 366.535 34.322L364.853 32.6516C363.733 31.54 361.918 31.54 360.798 32.6516C359.679 33.7635 359.679 35.5663 360.798 36.6779L362.48 38.3483Z" fill="#FFBA08"/>
<path d="M336.999 13.0429C337.559 13.5986 338.292 13.8768 339.026 13.8768C339.76 13.8768 340.493 13.5989 341.053 13.0429C342.173 11.931 342.173 10.1282 341.053 9.01664L339.371 7.34627C338.251 6.23468 336.437 6.23468 335.317 7.34627C334.197 8.45814 334.197 10.261 335.317 11.3726L336.999 13.0429Z" fill="#FFBA08"/>
<path d="M7.46172 131.152L10.8217 120.952H14.3977L9.47772 134.248H5.39772L0.501719 120.952H4.10172L7.46172 131.152ZM17.9889 119.368C17.3969 119.368 16.9009 119.184 16.5009 118.816C16.1169 118.432 15.9249 117.96 15.9249 117.4C15.9249 116.84 16.1169 116.376 16.5009 116.008C16.9009 115.624 17.3969 115.432 17.9889 115.432C18.5809 115.432 19.0689 115.624 19.4529 116.008C19.8529 116.376 20.0529 116.84 20.0529 117.4C20.0529 117.96 19.8529 118.432 19.4529 118.816C19.0689 119.184 18.5809 119.368 17.9889 119.368ZM19.6449 120.952V134.248H16.2849V120.952H19.6449ZM22.1006 127.552C22.1006 126.208 22.3646 125.016 22.8926 123.976C23.4366 122.936 24.1726 122.136 25.1006 121.576C26.0286 121.016 27.0606 120.736 28.1966 120.736C29.0606 120.736 29.8846 120.928 30.6686 121.312C31.4526 121.68 32.0766 122.176 32.5406 122.8V116.488H35.9486V134.248H32.5406V132.28C32.1246 132.936 31.5406 133.464 30.7886 133.864C30.0366 134.264 29.1646 134.464 28.1726 134.464C27.0526 134.464 26.0286 134.176 25.1006 133.6C24.1726 133.024 23.4366 132.216 22.8926 131.176C22.3646 130.12 22.1006 128.912 22.1006 127.552ZM32.5646 127.6C32.5646 126.784 32.4046 126.088 32.0846 125.512C31.7646 124.92 31.3326 124.472 30.7886 124.168C30.2446 123.848 29.6606 123.688 29.0366 123.688C28.4126 123.688 27.8366 123.84 27.3086 124.144C26.7806 124.448 26.3486 124.896 26.0126 125.488C25.6926 126.064 25.5326 126.752 25.5326 127.552C25.5326 128.352 25.6926 129.056 26.0126 129.664C26.3486 130.256 26.7806 130.712 27.3086 131.032C27.8526 131.352 28.4286 131.512 29.0366 131.512C29.6606 131.512 30.2446 131.36 30.7886 131.056C31.3326 130.736 31.7646 130.288 32.0846 129.712C32.4046 129.12 32.5646 128.416 32.5646 127.6ZM38.3662 127.552C38.3662 126.208 38.6302 125.016 39.1582 123.976C39.7022 122.936 40.4302 122.136 41.3422 121.576C42.2702 121.016 43.3022 120.736 44.4382 120.736C45.4302 120.736 46.2942 120.936 47.0302 121.336C47.7822 121.736 48.3822 122.24 48.8302 122.848V120.952H52.2142V134.248H48.8302V132.304C48.3982 132.928 47.7982 133.448 47.0302 133.864C46.2782 134.264 45.4062 134.464 44.4142 134.464C43.2942 134.464 42.2702 134.176 41.3422 133.6C40.4302 133.024 39.7022 132.216 39.1582 131.176C38.6302 130.12 38.3662 128.912 38.3662 127.552ZM48.8302 127.6C48.8302 126.784 48.6702 126.088 48.3502 125.512C48.0302 124.92 47.5982 124.472 47.0542 124.168C46.5102 123.848 45.9262 123.688 45.3022 123.688C44.6782 123.688 44.1022 123.84 43.5742 124.144C43.0462 124.448 42.6142 124.896 42.2782 125.488C41.9582 126.064 41.7982 126.752 41.7982 127.552C41.7982 128.352 41.9582 129.056 42.2782 129.664C42.6142 130.256 43.0462 130.712 43.5742 131.032C44.1182 131.352 44.6942 131.512 45.3022 131.512C45.9262 131.512 46.5102 131.36 47.0542 131.056C47.5982 130.736 48.0302 130.288 48.3502 129.712C48.6702 129.12 48.8302 128.416 48.8302 127.6ZM68.5826 120.76C70.1666 120.76 71.4466 121.264 72.4226 122.272C73.3986 123.264 73.8866 124.656 73.8866 126.448V134.248H70.5266V126.904C70.5266 125.848 70.2626 125.04 69.7346 124.48C69.2066 123.904 68.4866 123.616 67.5746 123.616C66.6466 123.616 65.9106 123.904 65.3666 124.48C64.8386 125.04 64.5746 125.848 64.5746 126.904V134.248H61.2146V120.952H64.5746V122.608C65.0226 122.032 65.5906 121.584 66.2786 121.264C66.9826 120.928 67.7506 120.76 68.5826 120.76ZM82.9858 134.464C81.7058 134.464 80.5538 134.184 79.5298 133.624C78.5058 133.048 77.6978 132.24 77.1058 131.2C76.5298 130.16 76.2418 128.96 76.2418 127.6C76.2418 126.24 76.5378 125.04 77.1298 124C77.7378 122.96 78.5618 122.16 79.6018 121.6C80.6418 121.024 81.8018 120.736 83.0818 120.736C84.3618 120.736 85.5218 121.024 86.5618 121.6C87.6018 122.16 88.4178 122.96 89.0098 124C89.6178 125.04 89.9218 126.24 89.9218 127.6C89.9218 128.96 89.6098 130.16 88.9858 131.2C88.3778 132.24 87.5458 133.048 86.4898 133.624C85.4498 134.184 84.2818 134.464 82.9858 134.464ZM82.9858 131.536C83.5938 131.536 84.1618 131.392 84.6898 131.104C85.2338 130.8 85.6658 130.352 85.9858 129.76C86.3058 129.168 86.4658 128.448 86.4658 127.6C86.4658 126.336 86.1298 125.368 85.4578 124.696C84.8018 124.008 83.9938 123.664 83.0338 123.664C82.0738 123.664 81.2658 124.008 80.6098 124.696C79.9698 125.368 79.6498 126.336 79.6498 127.6C79.6498 128.864 79.9618 129.84 80.5858 130.528C81.2258 131.2 82.0258 131.536 82.9858 131.536ZM96.2985 123.712V130.144C96.2985 130.592 96.4025 130.92 96.6105 131.128C96.8345 131.32 97.2025 131.416 97.7145 131.416H99.2745V134.248H97.1625C94.3305 134.248 92.9145 132.872 92.9145 130.12V123.712H91.3305V120.952H92.9145V117.664H96.2985V120.952H99.2745V123.712H96.2985ZM114.243 120.952V134.248H110.859V132.568C110.427 133.144 109.859 133.6 109.155 133.936C108.467 134.256 107.715 134.416 106.899 134.416C105.859 134.416 104.939 134.2 104.139 133.768C103.339 133.32 102.707 132.672 102.243 131.824C101.795 130.96 101.571 129.936 101.571 128.752V120.952H104.931V128.272C104.931 129.328 105.195 130.144 105.723 130.72C106.251 131.28 106.971 131.56 107.883 131.56C108.811 131.56 109.539 131.28 110.067 130.72C110.595 130.144 110.859 129.328 110.859 128.272V120.952H114.243ZM120.918 123.016C121.35 122.312 121.91 121.76 122.598 121.36C123.302 120.96 124.102 120.76 124.998 120.76V124.288H124.11C123.054 124.288 122.254 124.536 121.71 125.032C121.182 125.528 120.918 126.392 120.918 127.624V134.248H117.558V120.952H120.918V123.016ZM134.629 120.76C136.213 120.76 137.493 121.264 138.469 122.272C139.445 123.264 139.933 124.656 139.933 126.448V134.248H136.573V126.904C136.573 125.848 136.309 125.04 135.781 124.48C135.253 123.904 134.533 123.616 133.621 123.616C132.693 123.616 131.957 123.904 131.413 124.48C130.885 125.04 130.621 125.848 130.621 126.904V134.248H127.261V120.952H130.621V122.608C131.069 122.032 131.637 121.584 132.325 121.264C133.029 120.928 133.797 120.76 134.629 120.76ZM142.265 127.552C142.265 126.208 142.529 125.016 143.057 123.976C143.601 122.936 144.329 122.136 145.241 121.576C146.169 121.016 147.201 120.736 148.337 120.736C149.329 120.736 150.193 120.936 150.929 121.336C151.681 121.736 152.281 122.24 152.729 122.848V120.952H156.113V134.248H152.729V132.304C152.297 132.928 151.697 133.448 150.929 133.864C150.177 134.264 149.305 134.464 148.313 134.464C147.193 134.464 146.169 134.176 145.241 133.6C144.329 133.024 143.601 132.216 143.057 131.176C142.529 130.12 142.265 128.912 142.265 127.552ZM152.729 127.6C152.729 126.784 152.569 126.088 152.249 125.512C151.929 124.92 151.497 124.472 150.953 124.168C150.409 123.848 149.825 123.688 149.201 123.688C148.577 123.688 148.001 123.84 147.473 124.144C146.945 124.448 146.513 124.896 146.177 125.488C145.857 126.064 145.697 126.752 145.697 127.552C145.697 128.352 145.857 129.056 146.177 129.664C146.513 130.256 146.945 130.712 147.473 131.032C148.017 131.352 148.593 131.512 149.201 131.512C149.825 131.512 150.409 131.36 150.953 131.056C151.497 130.736 151.929 130.288 152.249 129.712C152.569 129.12 152.729 128.416 152.729 127.6Z" fill="#47585B"/>
<g clip-path="url(#clip3_39_24)">
<path d="M107.192 0C98.425 0 91.1048 6.34866 89.6518 14.659L68.8602 14.6587L56.3837 2.39342L51.639 6.09343L60.3516 14.659H47.9574C46.7359 14.659 45.6372 15.396 45.181 16.5212C44.7248 17.6465 45.0033 18.934 45.8836 19.7744L74.5687 47.1478V78.4693H64.5364C62.8836 78.4693 61.5434 79.8003 61.5434 81.4417C61.5434 83.0831 62.8836 84.4141 64.5364 84.4141H90.5868C92.2392 84.4141 93.5795 83.0831 93.5795 81.4417C93.5795 79.8003 92.2392 78.4693 90.5868 78.4693H80.5542V47.1481L96.5625 31.8718C99.6145 34.1418 103.296 35.3708 107.192 35.3708C117.011 35.3708 125 27.4373 125 17.6854C125 7.93348 117.011 0 107.192 0ZM116.896 24.3797L112.25 19.7659H118.824C118.519 21.4565 117.849 23.0219 116.896 24.3797ZM109.287 12.6621V6.13293C110.989 6.43648 112.566 7.10213 113.933 8.04802L109.287 12.6621ZM105.097 12.6621L100.454 8.05086C101.82 7.10412 103.396 6.43762 105.097 6.1335V12.6621ZM109.287 22.7085L113.933 27.3222C112.566 28.2681 110.989 28.9338 109.287 29.2373V22.7085ZM112.25 15.6046L116.896 10.9908C117.848 12.3486 118.519 13.9141 118.824 15.6046H112.25ZM97.4906 10.9937L101.181 14.659H95.7715C96.1298 13.33 96.7182 12.0939 97.4906 10.9937ZM99.7315 20.6035L77.562 41.7595L55.3916 20.6032L99.7315 20.6035ZM105.097 23.728V29.2401C103.625 28.9807 102.228 28.4517 100.966 27.6701L105.097 23.728Z" fill="#FFBA08"/>
</g>
<defs>
<clipPath id="clip0_39_24">
<rect width="85" height="84.4138" fill="white" transform="translate(1067)"/>
</clipPath>
<clipPath id="clip1_39_24">
<rect width="85" height="84.4138" fill="white" transform="translate(815)"/>
</clipPath>
<clipPath id="clip2_39_24">
<rect width="85" height="84.4138" fill="white" transform="translate(538)"/>
</clipPath>
<clipPath id="clip3_39_24">
<rect width="85" height="84.4138" fill="white" transform="translate(40)"/>
</clipPath>
</defs>
</svg>
